{
  "source": "C:\\Users\\Peter\\Desktop\\stuff\\MIUN\\quantitative_research\\video_compression\\videos\\BVI-HD\\Boxing_1920x1080_30fps.mp4",
  "output": "C:\\Users\\Peter\\Desktop\\stuff\\MIUN\\quantitative_research\\video_compression\\compressed_videos\\BVI-HD\\vp9\\12\\Boxing_1920x1080_30fps_vp9.webm",
  "codec": "vp9",
  "ok": "Input #0, mov,mp4,m4a,3gp,3g2,mj2, from 'C:\\Users\\Peter\\Desktop\\stuff\\MIUN\\quantitative_research\\video_compression\\videos\\BVI-HD\\Boxing_1920x1080_30fps.mp4':\n  Metadata:\n    major_brand     : isom\n    minor_version   : 512\n    compatible_brands: isomiso2avc1mp41\n    encoder         : Lavf54.28.101\n  Duration: 00:00:05.00, start: 0.000000, bitrate: 238363 kb/s\n  Stream #0:0[0x1](und): Video: h264 (High 4:4:4 Predictive) (avc1 / 0x31637661), yuv420p(progressive), 1920x1080, 238359 kb/s, 30 fps, 30 tbr, 30 tbn (default)\n    Metadata:\n      handler_name    : VideoHandler\n      vendor_id       : [0][0][0][0]\n[out#0/webm @ 000001dbd61f0c40] Codec AVOption b:a (set bitrate (in bits/s)) has not been used for any stream. The most likely reason is either wrong type (e.g. a video option with no video streams) or that it is a private option of some decoder which was not actually used for any stream.\nStream mapping:\n  Stream #0:0 -> #0:0 (h264 (native) -> vp9 (libvpx-vp9))\nPress [q] to stop, [?] for help\n[libvpx-vp9 @ 000001dbd61ef040] v1.15.2-100-g40561f514\nOutput #0, webm, to 'C:\\Users\\Peter\\Desktop\\stuff\\MIUN\\quantitative_research\\video_compression\\compressed_videos\\BVI-HD\\vp9\\12\\Boxing_1920x1080_30fps_vp9.webm':\n  Metadata:\n    major_brand     : isom\n    minor_version   : 512\n    compatible_brands: isomiso2avc1mp41\n    encoder         : Lavf62.3.100\n  Stream #0:0(und): Video: vp9, yuv420p(tv, progressive), 1920x1080, q=2-31, 12000 kb/s, 30 fps, 1k tbn (default)\n    Metadata:\n      encoder         : Lavc62.11.100 libvpx-vp9\n      handler_name    : VideoHandler\n      vendor_id       : [0][0][0][0]\n    Side data:\n      cpb: bitrate max/min/avg: 0/0/0 buffer size: 12000000 vbv_delay: N/A\nframe=    0 fps=0.0 q=0.0 size=       0KiB time=N/A bitrate=N/A speed=N/A elapsed=0:00:02.01    \nframe=    0 fps=0.0 q=0.0 size=       0KiB time=N/A bitrate=N/A speed=N/A elapsed=0:00:03.04    \nframe=    1 fps=0.3 q=12.0 size=       1KiB time=00:00:00.03 bitrate= 152.2kbits/s speed=0.00908x elapsed=0:00:03.67    \nframe=    4 fps=0.9 q=33.0 size=       1KiB time=00:00:00.10 bitrate=  50.7kbits/s speed=0.0234x elapsed=0:00:04.27    \nframe=    5 fps=1.0 q=31.0 size=       1KiB time=00:00:00.16 bitrate=  30.4kbits/s speed=0.0337x elapsed=0:00:04.94    \nframe=    7 fps=1.2 q=26.0 size=       1KiB time=00:00:00.20 bitrate=  25.4kbits/s speed=0.0353x elapsed=0:00:05.66    \nframe=    8 fps=1.3 q=25.0 size=       1KiB time=00:00:00.23 bitrate=  21.7kbits/s speed=0.0367x elapsed=0:00:06.35    \nframe=    9 fps=1.3 q=25.0 size=       1KiB time=00:00:00.30 bitrate=  16.9kbits/s speed=0.0422x elapsed=0:00:07.11    \nframe=   10 fps=1.3 q=24.0 size=       1KiB time=00:00:00.33 bitrate=  15.2kbits/s speed=0.0422x elapsed=0:00:07.90    \nframe=   11 fps=1.3 q=12.0 size=       1KiB time=00:00:00.36 bitrate=  13.8kbits/s speed=0.0428x elapsed=0:00:08.55    \nframe=   12 fps=1.3 q=24.0 size=       1KiB time=00:00:00.40 bitrate=  12.7kbits/s speed=0.0429x elapsed=0:00:09.31    \nframe=   14 fps=1.4 q=22.0 size=       1KiB time=00:00:00.46 bitrate=  10.9kbits/s speed=0.047x elapsed=0:00:09.91    \nframe=   15 fps=1.4 q=22.0 size=       1KiB time=00:00:00.50 bitrate=  10.1kbits/s speed=0.0472x elapsed=0:00:10.59    \nframe=   16 fps=1.4 q=22.0 size=       1KiB time=00:00:00.53 bitrate=   9.5kbits/s speed=0.0471x elapsed=0:00:11.31    \nframe=   17 fps=1.4 q=23.0 size=       1KiB time=00:00:00.56 bitrate=   9.0kbits/s speed=0.0472x elapsed=0:00:12.01    \nframe=   19 fps=1.5 q=23.0 size=       1KiB time=00:00:00.60 bitrate=   8.5kbits/s speed=0.0474x elapsed=0:00:12.66    \nframe=   20 fps=1.5 q=23.0 size=       1KiB time=00:00:00.66 bitrate=   7.6kbits/s speed=0.0497x elapsed=0:00:13.40    \nframe=   20 fps=1.4 q=23.0 size=       1KiB time=00:00:00.66 bitrate=   7.6kbits/s speed=0.0469x elapsed=0:00:14.21    \nframe=   21 fps=1.4 q=8.0 size=       1KiB time=00:00:00.66 bitrate=   7.6kbits/s speed=0.0446x elapsed=0:00:14.95    \nframe=   22 fps=1.4 q=24.0 size=       1KiB time=00:00:00.73 bitrate=   6.9kbits/s speed=0.0471x elapsed=0:00:15.56    \nframe=   23 fps=1.4 q=23.0 size=       1KiB time=00:00:00.76 bitrate=   6.6kbits/s speed=0.0473x elapsed=0:00:16.19    \nframe=   24 fps=1.4 q=23.0 size=       1KiB time=00:00:00.80 bitrate=   6.3kbits/s speed=0.047x elapsed=0:00:17.02    \nframe=   25 fps=1.4 q=23.0 size=       1KiB time=00:00:00.83 bitrate=   6.1kbits/s speed=0.0468x elapsed=0:00:17.81    \nframe=   27 fps=1.4 q=24.0 size=       1KiB time=00:00:00.86 bitrate=   5.9kbits/s speed=0.0465x elapsed=0:00:18.62    \nframe=   28 fps=1.4 q=25.0 size=       1KiB time=00:00:00.93 bitrate=   5.4kbits/s speed=0.0481x elapsed=0:00:19.38    \nframe=   30 fps=1.5 q=24.0 size=       1KiB time=00:00:01.00 bitrate=   5.1kbits/s speed=0.0498x elapsed=0:00:20.07    \nframe=   30 fps=1.4 q=24.0 size=       1KiB time=00:00:01.00 bitrate=   5.1kbits/s speed=0.048x elapsed=0:00:20.82    \nframe=   31 fps=1.4 q=7.0 size=       1KiB time=00:00:01.03 bitrate=   4.9kbits/s speed=0.048x elapsed=0:00:21.52    \nframe=   33 fps=1.5 q=23.0 size=       1KiB time=00:00:01.06 bitrate=   4.8kbits/s speed=0.0479x elapsed=0:00:22.27    \nframe=   34 fps=1.5 q=23.0 size=       1KiB time=00:00:01.13 bitrate=   4.5kbits/s speed=0.0495x elapsed=0:00:22.91    \nframe=   35 fps=1.5 q=22.0 size=       1KiB time=00:00:01.16 bitrate=   4.3kbits/s speed=0.0493x elapsed=0:00:23.66    \nframe=   36 fps=1.5 q=22.0 size=       1KiB time=00:00:01.20 bitrate=   4.2kbits/s speed=0.0493x elapsed=0:00:24.36    \nframe=   37 fps=1.5 q=21.0 size=       1KiB time=00:00:01.23 bitrate=   4.1kbits/s speed=0.0489x elapsed=0:00:25.20    \nframe=   39 fps=1.5 q=20.0 size=       1KiB time=00:00:01.26 bitrate=   4.0kbits/s speed=0.049x elapsed=0:00:25.85    \nframe=   40 fps=1.5 q=21.0 size=       1KiB time=00:00:01.33 bitrate=   3.8kbits/s speed=0.0501x elapsed=0:00:26.60    \nframe=   40 fps=1.5 q=21.0 size=       1KiB time=00:00:01.33 bitrate=   3.8kbits/s speed=0.0488x elapsed=0:00:27.32    \nframe=   41 fps=1.5 q=7.0 size=       1KiB time=00:00:01.36 bitrate=   3.7kbits/s speed=0.0489x elapsed=0:00:27.97    \nframe=   43 fps=1.5 q=24.0 size=       1KiB time=00:00:01.43 bitrate=   3.5kbits/s speed=0.0502x elapsed=0:00:28.55    \nframe=   44 fps=1.5 q=24.0 size=       1KiB time=00:00:01.46 bitrate=   3.5kbits/s speed=0.0501x elapsed=0:00:29.25    \nframe=   45 fps=1.5 q=25.0 size=       1KiB time=00:00:01.50 bitrate=   3.4kbits/s speed=0.0501x elapsed=0:00:29.93    \nframe=   47 fps=1.5 q=25.0 size=       1KiB time=00:00:01.53 bitrate=   3.3kbits/s speed=0.0501x elapsed=0:00:30.63    \nframe=   48 fps=1.5 q=25.0 size=       1KiB time=00:00:01.56 bitrate=   3.2kbits/s speed=0.05x elapsed=0:00:31.31    \nframe=   49 fps=1.5 q=25.0 size=       1KiB time=00:00:01.63 bitrate=   3.1kbits/s speed=0.051x elapsed=0:00:32.01    \nframe=   50 fps=1.5 q=25.0 size=       1KiB time=00:00:01.66 bitrate=   3.0kbits/s speed=0.0508x elapsed=0:00:32.81    \nframe=   50 fps=1.5 q=25.0 size=       1KiB time=00:00:01.66 bitrate=   3.0kbits/s speed=0.0497x elapsed=0:00:33.56    \nframe=   51 fps=1.5 q=8.0 size=       1KiB time=00:00:01.70 bitrate=   3.0kbits/s speed=0.0497x elapsed=0:00:34.18    \nframe=   53 fps=1.5 q=23.0 size=       1KiB time=00:00:01.76 bitrate=   2.9kbits/s speed=0.0508x elapsed=0:00:34.75    \nframe=   54 fps=1.5 q=23.0 size=       1KiB time=00:00:01.80 bitrate=   2.8kbits/s speed=0.0508x elapsed=0:00:35.42    \nframe=   56 fps=1.6 q=24.0 size=       1KiB time=00:00:01.86 bitrate=   2.7kbits/s speed=0.0517x elapsed=0:00:36.07    \nframe=   57 fps=1.5 q=24.0 size=       1KiB time=00:00:01.90 bitrate=   2.7kbits/s speed=0.0514x elapsed=0:00:36.93    \nframe=   58 fps=1.5 q=24.0 size=       1KiB time=00:00:01.93 bitrate=   2.6kbits/s speed=0.0514x elapsed=0:00:37.63    \nframe=   60 fps=1.6 q=25.0 size=       1KiB time=00:00:01.96 bitrate=   2.6kbits/s speed=0.0513x elapsed=0:00:38.34    \nframe=   60 fps=1.5 q=25.0 size=       1KiB time=00:00:02.00 bitrate=   2.5kbits/s speed=0.0513x elapsed=0:00:38.96    \nframe=   60 fps=1.5 q=25.0 size=       1KiB time=00:00:02.00 bitrate=   2.5kbits/s speed=0.0505x elapsed=0:00:39.59    \nframe=   62 fps=1.5 q=25.0 size=       1KiB time=00:00:02.06 bitrate=   2.5kbits/s speed=0.0514x elapsed=0:00:40.18    \nframe=   64 fps=1.6 q=24.0 size=       1KiB time=00:00:02.10 bitrate=   2.4kbits/s speed=0.0514x elapsed=0:00:40.85    \nframe=   65 fps=1.6 q=23.0 size=       1KiB time=00:00:02.16 bitrate=   2.3kbits/s speed=0.0522x elapsed=0:00:41.50    \nframe=   66 fps=1.6 q=23.0 size=       1KiB time=00:00:02.20 bitrate=   2.3kbits/s speed=0.0521x elapsed=0:00:42.25    \nframe=   68 fps=1.6 q=23.0 size=       1KiB time=00:00:02.23 bitrate=   2.3kbits/s speed=0.052x elapsed=0:00:42.97    \nframe=   69 fps=1.6 q=23.0 size=       1KiB time=00:00:02.30 bitrate=   2.2kbits/s speed=0.0526x elapsed=0:00:43.72    \nframe=   70 fps=1.6 q=23.0 size=       1KiB time=00:00:02.33 bitrate=   2.2kbits/s speed=0.0525x elapsed=0:00:44.41    \nframe=   70 fps=1.5 q=23.0 size=       1KiB time=00:00:02.33 bitrate=   2.2kbits/s speed=0.0517x elapsed=0:00:45.17    \nframe=   72 fps=1.6 q=23.0 size=       1KiB time=00:00:02.40 bitrate=   2.1kbits/s speed=0.0523x elapsed=0:00:45.85    \nframe=   74 fps=1.6 q=23.0 size=       1KiB time=00:00:02.43 bitrate=   2.1kbits/s speed=0.0523x elapsed=0:00:46.51    \nframe=   75 fps=1.6 q=23.0 size=       1KiB time=00:00:02.50 bitrate=   2.0kbits/s speed=0.0529x elapsed=0:00:47.23    \nframe=   77 fps=1.6 q=23.0 size=       1KiB time=00:00:02.53 bitrate=   2.0kbits/s speed=0.0529x elapsed=0:00:47.92    \nframe=   78 fps=1.6 q=23.0 size=       1KiB time=00:00:02.60 bitrate=   2.0kbits/s speed=0.0535x elapsed=0:00:48.64    \nframe=   79 fps=1.6 q=24.0 size=       1KiB time=00:00:02.63 bitrate=   1.9kbits/s speed=0.0533x elapsed=0:00:49.39    \nframe=   80 fps=1.6 q=24.0 size=       1KiB time=00:00:02.66 bitrate=   1.9kbits/s speed=0.0533x elapsed=0:00:50.07    \nframe=   80 fps=1.6 q=24.0 size=       1KiB time=00:00:02.66 bitrate=   1.9kbits/s speed=0.0525x elapsed=0:00:50.79    \nframe=   81 fps=1.6 q=8.0 size=       1KiB time=00:00:02.70 bitrate=   1.9kbits/s speed=0.0524x elapsed=0:00:51.51    \nframe=   82 fps=1.6 q=25.0 size=       1KiB time=00:00:02.73 bitrate=   1.9kbits/s speed=0.0525x elapsed=0:00:52.09    \nframe=   83 fps=1.6 q=24.0 size=       1KiB time=00:00:02.76 bitrate=   1.8kbits/s speed=0.0526x elapsed=0:00:52.62    \nframe=   85 fps=1.6 q=25.0 size=       1KiB time=00:00:02.80 bitrate=   1.8kbits/s speed=0.0526x elapsed=0:00:53.25    \nframe=   86 fps=1.6 q=25.0 size=       1KiB time=00:00:02.86 bitrate=   1.8kbits/s speed=0.0532x elapsed=0:00:53.92    \nframe=   88 fps=1.6 q=25.0 size=       1KiB time=00:00:02.93 bitrate=   1.7kbits/s speed=0.0538x elapsed=0:00:54.52    \nframe=   89 fps=1.6 q=25.0 size=       1KiB time=00:00:02.96 bitrate=   1.7kbits/s speed=0.0538x elapsed=0:00:55.09    \nframe=   90 fps=1.6 q=25.0 size=       1KiB time=00:00:03.00 bitrate=   1.7kbits/s speed=0.0537x elapsed=0:00:55.84    \nframe=   91 fps=1.6 q=9.0 size=       1KiB time=00:00:03.00 bitrate=   1.7kbits/s speed=0.0531x elapsed=0:00:56.54    \nframe=   92 fps=1.6 q=24.0 size=       1KiB time=00:00:03.06 bitrate=   1.7kbits/s speed=0.0536x elapsed=0:00:57.24    \nframe=   93 fps=1.6 q=24.0 size=       1KiB time=00:00:03.10 bitrate=   1.6kbits/s speed=0.0535x elapsed=0:00:57.89    \nframe=   95 fps=1.6 q=24.0 size=       1KiB time=00:00:03.16 bitrate=   1.6kbits/s speed=0.0541x elapsed=0:00:58.53    \nframe=   96 fps=1.6 q=24.0 size=       1KiB time=00:00:03.20 bitrate=   1.6kbits/s speed=0.054x elapsed=0:00:59.20    \nframe=   98 fps=1.6 q=25.0 size=       1KiB time=00:00:03.26 bitrate=   1.6kbits/s speed=0.0546x elapsed=0:00:59.82    \nframe=  100 fps=1.7 q=25.0 size=       1KiB time=00:00:03.33 bitrate=   1.5kbits/s speed=0.0551x elapsed=0:01:00.45    \nframe=  100 fps=1.6 q=25.0 size=       1KiB time=00:00:03.33 bitrate=   1.5kbits/s speed=0.0545x elapsed=0:01:01.13    \nframe=  102 fps=1.7 q=26.0 size=       1KiB time=00:00:03.36 bitrate=   1.5kbits/s speed=0.0545x elapsed=0:01:01.74    \nframe=  103 fps=1.7 q=25.0 size=       1KiB time=00:00:03.43 bitrate=   1.5kbits/s speed=0.0551x elapsed=0:01:02.34    \nframe=  104 fps=1.7 q=25.0 size=       1KiB time=00:00:03.46 bitrate=   1.5kbits/s speed=0.0551x elapsed=0:01:02.96    \nframe=  106 fps=1.7 q=26.0 size=       1KiB time=00:00:03.53 bitrate=   1.4kbits/s speed=0.0556x elapsed=0:01:03.49    \nframe=  107 fps=1.7 q=26.0 size=       1KiB time=00:00:03.56 bitrate=   1.4kbits/s speed=0.0555x elapsed=0:01:04.21    \nframe=  109 fps=1.7 q=25.0 size=       1KiB time=00:00:03.63 bitrate=   1.4kbits/s speed=0.0561x elapsed=0:01:04.79    \nframe=  110 fps=1.7 q=25.0 size=       1KiB time=00:00:03.66 bitrate=   1.4kbits/s speed=0.0561x elapsed=0:01:05.39    \nframe=  111 fps=1.7 q=9.0 size=       1KiB time=00:00:03.66 bitrate=   1.4kbits/s speed=0.0555x elapsed=0:01:06.02    \nframe=  112 fps=1.7 q=25.0 size=       1KiB time=00:00:03.73 bitrate=   1.4kbits/s speed=0.0559x elapsed=0:01:06.73    \nframe=  113 fps=1.7 q=24.0 size=       1KiB time=00:00:03.76 bitrate=   1.3kbits/s speed=0.0558x elapsed=0:01:07.50    \nframe=  114 fps=1.7 q=24.0 size=       1KiB time=00:00:03.80 bitrate=   1.3kbits/s speed=0.0557x elapsed=0:01:08.22    \nframe=  116 fps=1.7 q=25.0 size=       1KiB time=00:00:03.86 bitrate=   1.3kbits/s speed=0.0562x elapsed=0:01:08.85    \nframe=  117 fps=1.7 q=25.0 size=       1KiB time=00:00:03.90 bitrate=   1.3kbits/s speed=0.056x elapsed=0:01:09.67    \nframe=  119 fps=1.7 q=25.0 size=       1KiB time=00:00:03.96 bitrate=   1.3kbits/s speed=0.0564x elapsed=0:01:10.35    \nframe=  120 fps=1.7 q=25.0 size=       1KiB time=00:00:04.00 bitrate=   1.3kbits/s speed=0.0563x elapsed=0:01:10.99    \nframe=  121 fps=1.7 q=9.0 size=       1KiB time=00:00:04.03 bitrate=   1.3kbits/s speed=0.0563x elapsed=0:01:11.60    \nframe=  122 fps=1.7 q=26.0 size=       1KiB time=00:00:04.06 bitrate=   1.2kbits/s speed=0.0563x elapsed=0:01:12.23    \nframe=  124 fps=1.7 q=26.0 size=    5120KiB time=00:00:04.13 bitrate=10147.5kbits/s speed=0.0567x elapsed=0:01:12.84    \nframe=  126 fps=1.7 q=25.0 size=    5120KiB time=00:00:04.16 bitrate=10066.3kbits/s speed=0.0567x elapsed=0:01:13.50    \nframe=  126 fps=1.7 q=25.0 size=    5120KiB time=00:00:04.20 bitrate=9986.4kbits/s speed=0.0566x elapsed=0:01:14.20    \nframe=  126 fps=1.7 q=25.0 size=    5120KiB time=00:00:04.20 bitrate=9986.4kbits/s speed=0.0561x elapsed=0:01:14.84    \nframe=  126 fps=1.7 q=25.0 size=    5120KiB time=00:00:04.20 bitrate=9986.4kbits/s speed=0.0557x elapsed=0:01:15.36    \nframe=  126 fps=1.7 q=25.0 size=    5120KiB time=00:00:04.20 bitrate=9986.4kbits/s speed=0.0553x elapsed=0:01:15.92    \nframe=  126 fps=1.6 q=25.0 size=    5120KiB time=00:00:04.20 bitrate=9986.4kbits/s speed=0.0548x elapsed=0:01:16.63    \nframe=  126 fps=1.6 q=25.0 size=    5120KiB time=00:00:04.20 bitrate=9986.4kbits/s speed=0.0544x elapsed=0:01:17.20    \nframe=  126 fps=1.6 q=25.0 size=    5120KiB time=00:00:04.20 bitrate=9986.4kbits/s speed=0.054x elapsed=0:01:17.78    \nframe=  126 fps=1.6 q=25.0 size=    5120KiB time=00:00:04.20 bitrate=9986.4kbits/s speed=0.0536x elapsed=0:01:18.40    \nframe=  126 fps=1.6 q=25.0 size=    5120KiB time=00:00:04.20 bitrate=9986.4kbits/s speed=0.0531x elapsed=0:01:19.04    \nframe=  126 fps=1.6 q=25.0 size=    5120KiB time=00:00:04.20 bitrate=9986.4kbits/s speed=0.0527x elapsed=0:01:19.68    \nframe=  126 fps=1.6 q=25.0 size=    5120KiB time=00:00:04.20 bitrate=9986.4kbits/s speed=0.0523x elapsed=0:01:20.37    \nframe=  126 fps=1.6 q=25.0 size=    5120KiB time=00:00:04.20 bitrate=9986.4kbits/s speed=0.0518x elapsed=0:01:21.07    \nframe=  126 fps=1.5 q=25.0 size=    5120KiB time=00:00:04.20 bitrate=9986.4kbits/s speed=0.0514x elapsed=0:01:21.74    \nframe=  126 fps=1.5 q=25.0 size=    5120KiB time=00:00:04.20 bitrate=9986.4kbits/s speed=0.051x elapsed=0:01:22.31    \nframe=  126 fps=1.5 q=25.0 size=    5120KiB time=00:00:04.20 bitrate=9986.4kbits/s speed=0.0507x elapsed=0:01:22.87    \nframe=  126 fps=1.5 q=25.0 size=    5120KiB time=00:00:04.20 bitrate=9986.4kbits/s speed=0.0503x elapsed=0:01:23.50    \nframe=  126 fps=1.5 q=25.0 size=    5120KiB time=00:00:04.20 bitrate=9986.4kbits/s speed=0.05x elapsed=0:01:24.06    \nframe=  126 fps=1.5 q=25.0 size=    5120KiB time=00:00:04.20 bitrate=9986.4kbits/s speed=0.0496x elapsed=0:01:24.66    \nframe=  126 fps=1.5 q=25.0 size=    5120KiB time=00:00:04.20 bitrate=9986.4kbits/s speed=0.0492x elapsed=0:01:25.31    \nframe=  126 fps=1.5 q=25.0 size=    5120KiB time=00:00:04.20 bitrate=9986.4kbits/s speed=0.0489x elapsed=0:01:25.93    \nframe=  126 fps=1.5 q=25.0 size=    5120KiB time=00:00:04.20 bitrate=9986.4kbits/s speed=0.0485x elapsed=0:01:26.51    \nframe=  126 fps=1.4 q=25.0 size=    5120KiB time=00:00:04.20 bitrate=9986.4kbits/s speed=0.0482x elapsed=0:01:27.10    \nframe=  126 fps=1.4 q=25.0 size=    5120KiB time=00:00:04.20 bitrate=9986.4kbits/s speed=0.0479x elapsed=0:01:27.64    \n[out#0/webm @ 000001dbd61f0c40] video:6389KiB audio:0KiB subtitle:0KiB other streams:0KiB global headers:0KiB muxing overhead: 0.029117%\nframe=  150 fps=1.7 q=25.0 Lsize=    6391KiB time=00:00:05.00 bitrate=10471.3kbits/s speed=0.0569x elapsed=0:01:27.81    \n",
  "seconds": 89.67392611503601,
  "probe_out": {}
}